<mxfile host="app.diagrams.net" agent="Mozilla/5.0 (Macintosh; Intel Mac OS X 10.15; rv:135.0) Gecko/20100101 Firefox/135.0" version="26.0.14">
  <diagram name="Страница — 1" id="kg_1tP3JwjIM__acEuhQ">
    <mxGraphModel dx="1257" dy="835" grid="1" gridSize="10" guides="1" tooltips="1" connect="1" arrows="1" fold="1" page="1" pageScale="1" pageWidth="827" pageHeight="1169" math="0" shadow="0">
      <root>
        <mxCell id="0" />
        <mxCell id="1" parent="0" />
        <mxCell id="8_sm3HDybrZY0708MGfx-1" value="ServerController" style="swimlane;" vertex="1" parent="1">
          <mxGeometry x="80" y="40" width="200" height="80" as="geometry" />
        </mxCell>
        <mxCell id="8_sm3HDybrZY0708MGfx-2" value="&lt;pre&gt; handleRequest()&lt;/pre&gt;" style="text;html=1;align=center;verticalAlign=middle;resizable=0;points=[];autosize=1;strokeColor=#d6b656;fillColor=#fff2cc;" vertex="1" parent="8_sm3HDybrZY0708MGfx-1">
          <mxGeometry x="30" y="25" width="140" height="50" as="geometry" />
        </mxCell>
        <mxCell id="8_sm3HDybrZY0708MGfx-4" value="StatService" style="swimlane;" vertex="1" parent="1">
          <mxGeometry x="640" y="40" width="200" height="80" as="geometry" />
        </mxCell>
        <mxCell id="8_sm3HDybrZY0708MGfx-19" value="&lt;pre&gt;getStat()&lt;/pre&gt;" style="text;html=1;align=center;verticalAlign=middle;resizable=0;points=[];autosize=1;strokeColor=#2D7600;fillColor=#60a917;fontColor=#ffffff;" vertex="1" parent="8_sm3HDybrZY0708MGfx-4">
          <mxGeometry x="55" y="25" width="90" height="50" as="geometry" />
        </mxCell>
        <mxCell id="8_sm3HDybrZY0708MGfx-5" value="AuthService " style="swimlane;" vertex="1" parent="1">
          <mxGeometry x="360" y="40" width="200" height="80" as="geometry" />
        </mxCell>
        <mxCell id="8_sm3HDybrZY0708MGfx-18" value="&lt;pre&gt;auth()&lt;br&gt;reg()&lt;/pre&gt;" style="text;html=1;align=center;verticalAlign=middle;resizable=0;points=[];autosize=1;" vertex="1" parent="8_sm3HDybrZY0708MGfx-5">
          <mxGeometry x="65" y="10" width="70" height="70" as="geometry" />
        </mxCell>
        <mxCell id="8_sm3HDybrZY0708MGfx-7" value="Container" style="swimlane;" vertex="1" parent="1">
          <mxGeometry x="360" y="160" width="200" height="80" as="geometry" />
        </mxCell>
        <mxCell id="8_sm3HDybrZY0708MGfx-8" value="Database " style="swimlane;" vertex="1" parent="1">
          <mxGeometry x="360" y="280" width="200" height="120" as="geometry" />
        </mxCell>
        <mxCell id="8_sm3HDybrZY0708MGfx-21" value="&lt;div align=&quot;left&quot;&gt;&lt;pre&gt;query()&lt;br&gt;getUser()&lt;br&gt;addUser() &lt;/pre&gt;&lt;/div&gt;" style="text;html=1;align=left;verticalAlign=middle;resizable=0;points=[];autosize=1;strokeColor=#82b366;fillColor=#d5e8d4;" vertex="1" parent="8_sm3HDybrZY0708MGfx-8">
          <mxGeometry x="50" y="30" width="100" height="80" as="geometry" />
        </mxCell>
        <mxCell id="8_sm3HDybrZY0708MGfx-9" value="User" style="swimlane;startSize=23;" vertex="1" parent="1">
          <mxGeometry x="360" y="440" width="200" height="160" as="geometry" />
        </mxCell>
        <mxCell id="8_sm3HDybrZY0708MGfx-14" value="" style="shape=flexArrow;endArrow=classic;html=1;rounded=0;entryX=0.5;entryY=1;entryDx=0;entryDy=0;" edge="1" parent="1" source="8_sm3HDybrZY0708MGfx-7" target="8_sm3HDybrZY0708MGfx-5">
          <mxGeometry width="50" height="50" relative="1" as="geometry">
            <mxPoint x="414" y="170" as="sourcePoint" />
            <mxPoint x="464" y="120" as="targetPoint" />
          </mxGeometry>
        </mxCell>
        <mxCell id="8_sm3HDybrZY0708MGfx-15" value="" style="shape=flexArrow;endArrow=classic;html=1;rounded=0;exitX=0.5;exitY=0;exitDx=0;exitDy=0;" edge="1" parent="1" source="8_sm3HDybrZY0708MGfx-8">
          <mxGeometry width="50" height="50" relative="1" as="geometry">
            <mxPoint x="410" y="290" as="sourcePoint" />
            <mxPoint x="460" y="240" as="targetPoint" />
          </mxGeometry>
        </mxCell>
        <mxCell id="8_sm3HDybrZY0708MGfx-16" value="" style="shape=flexArrow;endArrow=classic;html=1;rounded=0;entryX=0.5;entryY=1;entryDx=0;entryDy=0;" edge="1" parent="1" source="8_sm3HDybrZY0708MGfx-9" target="8_sm3HDybrZY0708MGfx-8">
          <mxGeometry width="50" height="50" relative="1" as="geometry">
            <mxPoint x="414" y="450" as="sourcePoint" />
            <mxPoint x="464" y="400" as="targetPoint" />
          </mxGeometry>
        </mxCell>
        <mxCell id="8_sm3HDybrZY0708MGfx-17" value="" style="shape=flexArrow;endArrow=classic;startArrow=classic;html=1;rounded=0;" edge="1" parent="1">
          <mxGeometry width="100" height="100" relative="1" as="geometry">
            <mxPoint x="280" y="90" as="sourcePoint" />
            <mxPoint x="360" y="90" as="targetPoint" />
            <Array as="points" />
          </mxGeometry>
        </mxCell>
        <mxCell id="8_sm3HDybrZY0708MGfx-20" value="&lt;pre&gt;checkTask()&lt;/pre&gt;" style="text;html=1;align=center;verticalAlign=middle;resizable=0;points=[];autosize=1;strokeColor=#9673a6;fillColor=#e1d5e7;" vertex="1" parent="1">
          <mxGeometry x="410" y="188" width="100" height="50" as="geometry" />
        </mxCell>
        <mxCell id="8_sm3HDybrZY0708MGfx-22" value="&lt;div&gt;login&lt;/div&gt;&lt;div&gt;password&lt;/div&gt;&lt;div&gt;email&lt;/div&gt;&lt;div&gt;stat1&lt;/div&gt;&lt;div&gt;stat2&lt;/div&gt;&lt;div&gt;stat3&lt;/div&gt;" style="text;html=1;align=center;verticalAlign=middle;resizable=0;points=[];autosize=1;strokeColor=#6c8ebf;fillColor=#dae8fc;" vertex="1" parent="1">
          <mxGeometry x="425" y="483" width="70" height="100" as="geometry" />
        </mxCell>
      </root>
    </mxGraphModel>
  </diagram>
</mxfile>
